<svg width="259" height="40" viewBox="0 0 259 40" fill="none" xmlns="http://www.w3.org/2000/svg">
<path d="M11.9048 3.04762H4.23774V36.9524H11.9048V40H0.666687L0.666687 0H11.9048V3.04762Z" fill="#0F3665"/>
<path d="M29.2381 3.04762H36.9051V36.9524H29.2381V40H40.4762L40.4762 0H29.2381V3.04762Z" fill="#0F3665"/>
<rect x="11.7143" y="12.9524" width="39.619" height="6.47619" rx="3.2381" fill="#00CCFF"/>
<path d="M61.3867 30.8572V8.64001H65.3364V17.8972C65.8507 17.0537 66.5398 16.3954 67.4038 15.9223C68.2884 15.4286 69.2964 15.1817 70.4278 15.1817C72.3204 15.1817 73.7809 15.7783 74.8095 16.9714C75.8587 18.1646 76.3832 19.9132 76.3832 22.2172V30.8572H72.4644V22.5874C72.4644 21.2709 72.1969 20.2629 71.6621 19.5634C71.1478 18.864 70.3249 18.5143 69.1935 18.5143C68.0827 18.5143 67.1569 18.9052 66.4164 19.6869C65.6964 20.4686 65.3364 21.5589 65.3364 22.9577V30.8572H61.3867Z" fill="#0F3665"/>
<path d="M85.4367 31.2274C84.1201 31.2274 83.0401 31.0217 82.1967 30.6103C81.3532 30.1783 80.7258 29.6126 80.3144 28.9132C79.903 28.2137 79.6972 27.4423 79.6972 26.5989C79.6972 25.1794 80.2527 24.0274 81.3635 23.1429C82.4744 22.2583 84.1407 21.816 86.3624 21.816H90.2504V21.4457C90.2504 20.3966 89.9521 19.6252 89.3555 19.1314C88.759 18.6377 88.0184 18.3909 87.1338 18.3909C86.3315 18.3909 85.6321 18.5863 85.0355 18.9772C84.439 19.3474 84.0687 19.9029 83.9247 20.6434H80.0675C80.1704 19.5326 80.5407 18.5657 81.1784 17.7429C81.8367 16.92 82.6801 16.2926 83.7087 15.8606C84.7372 15.408 85.8892 15.1817 87.1647 15.1817C89.3452 15.1817 91.063 15.7269 92.3178 16.8172C93.5727 17.9074 94.2001 19.4503 94.2001 21.4457V30.8572H90.8367L90.4664 28.3886C90.0138 29.2114 89.3761 29.8903 88.5532 30.4252C87.751 30.96 86.7121 31.2274 85.4367 31.2274ZM86.3315 28.1417C87.463 28.1417 88.3372 27.7714 88.9544 27.0309C89.5921 26.2903 89.9932 25.3749 90.1578 24.2846H86.7944C85.7452 24.2846 84.9944 24.48 84.5418 24.8709C84.0892 25.2412 83.863 25.704 83.863 26.2594C83.863 26.856 84.0892 27.3189 84.5418 27.648C84.9944 27.9772 85.591 28.1417 86.3315 28.1417Z" fill="#0F3665"/>
<path d="M97.9692 30.8572V15.552H101.456L101.796 17.6194C102.289 16.8789 102.937 16.2926 103.74 15.8606C104.562 15.408 105.509 15.1817 106.578 15.1817C108.944 15.1817 110.621 16.0972 111.608 17.928C112.164 17.0846 112.904 16.416 113.83 15.9223C114.776 15.4286 115.805 15.1817 116.916 15.1817C118.911 15.1817 120.444 15.7783 121.513 16.9714C122.583 18.1646 123.118 19.9132 123.118 22.2172V30.8572H119.168V22.5874C119.168 21.2709 118.911 20.2629 118.397 19.5634C117.903 18.864 117.132 18.5143 116.082 18.5143C115.013 18.5143 114.149 18.9052 113.49 19.6869C112.853 20.4686 112.534 21.5589 112.534 22.9577V30.8572H108.584V22.5874C108.584 21.2709 108.327 20.2629 107.813 19.5634C107.298 18.864 106.506 18.5143 105.437 18.5143C104.388 18.5143 103.534 18.9052 102.876 19.6869C102.238 20.4686 101.919 21.5589 101.919 22.9577V30.8572H97.9692Z" fill="#0F3665"/>
<path d="M126.868 30.8572V15.552H130.355L130.694 17.6194C131.188 16.8789 131.836 16.2926 132.638 15.8606C133.461 15.408 134.407 15.1817 135.477 15.1817C137.843 15.1817 139.519 16.0972 140.507 17.928C141.062 17.0846 141.803 16.416 142.728 15.9223C143.675 15.4286 144.703 15.1817 145.814 15.1817C147.809 15.1817 149.342 15.7783 150.412 16.9714C151.481 18.1646 152.016 19.9132 152.016 22.2172V30.8572H148.067V22.5874C148.067 21.2709 147.809 20.2629 147.295 19.5634C146.801 18.864 146.03 18.5143 144.981 18.5143C143.911 18.5143 143.047 18.9052 142.389 19.6869C141.751 20.4686 141.432 21.5589 141.432 22.9577V30.8572H137.483V22.5874C137.483 21.2709 137.225 20.2629 136.711 19.5634C136.197 18.864 135.405 18.5143 134.335 18.5143C133.286 18.5143 132.432 18.9052 131.774 19.6869C131.136 20.4686 130.817 21.5589 130.817 22.9577V30.8572H126.868Z" fill="#0F3665"/>
<path d="M163.203 31.2274C161.66 31.2274 160.292 30.8983 159.099 30.24C157.906 29.5817 156.97 28.656 156.291 27.4629C155.612 26.2697 155.272 24.8914 155.272 23.328C155.272 21.744 155.602 20.3349 156.26 19.1006C156.939 17.8663 157.864 16.9097 159.037 16.2309C160.23 15.5314 161.629 15.1817 163.234 15.1817C164.735 15.1817 166.062 15.5109 167.214 16.1692C168.366 16.8274 169.261 17.7326 169.899 18.8846C170.557 20.016 170.886 21.2812 170.886 22.68C170.886 22.9063 170.876 23.1429 170.855 23.3897C170.855 23.6366 170.845 23.8937 170.824 24.1612H159.191C159.274 25.3543 159.685 26.2903 160.426 26.9692C161.187 27.648 162.102 27.9874 163.172 27.9874C163.974 27.9874 164.643 27.8126 165.178 27.4629C165.733 27.0926 166.144 26.6194 166.412 26.0434H170.423C170.135 27.0103 169.652 27.8949 168.973 28.6972C168.315 29.4789 167.492 30.096 166.504 30.5486C165.538 31.0012 164.437 31.2274 163.203 31.2274ZM163.234 18.3909C162.267 18.3909 161.413 18.6686 160.672 19.224C159.932 19.7589 159.459 20.5817 159.253 21.6926H166.875C166.813 20.6846 166.443 19.8823 165.764 19.2857C165.085 18.6892 164.242 18.3909 163.234 18.3909Z" fill="#0F3665"/>
<path d="M174.208 30.8572V15.552H177.726L178.096 18.4217C178.652 17.4343 179.402 16.6526 180.349 16.0766C181.316 15.48 182.447 15.1817 183.743 15.1817V19.3474H182.632C181.768 19.3474 180.997 19.4812 180.318 19.7486C179.639 20.016 179.104 20.4789 178.713 21.1372C178.343 21.7954 178.158 22.7109 178.158 23.8834V30.8572H174.208Z" fill="#0F3665"/>
<path d="M193.93 31.2167C192.367 31.2167 190.988 30.8773 189.795 30.1984C188.602 29.5196 187.656 28.5733 186.956 27.3596C186.278 26.1459 185.938 24.7573 185.938 23.1939C185.938 21.6304 186.278 20.2419 186.956 19.0281C187.656 17.8144 188.602 16.8681 189.795 16.1893C190.988 15.5104 192.367 15.171 193.93 15.171C195.884 15.171 197.53 15.6853 198.867 16.7139C200.204 17.7219 201.058 19.1207 201.428 20.9104H197.263C197.057 20.1699 196.646 19.5939 196.028 19.1824C195.432 18.7504 194.722 18.5344 193.899 18.5344C192.809 18.5344 191.883 18.9459 191.122 19.7687C190.361 20.5916 189.98 21.7333 189.98 23.1939C189.98 24.6544 190.361 25.7961 191.122 26.619C191.883 27.4419 192.809 27.8533 193.899 27.8533C194.722 27.8533 195.432 27.6476 196.028 27.2361C196.646 26.8247 197.057 26.2384 197.263 25.4773H201.428C201.058 27.2053 200.204 28.5939 198.867 29.643C197.53 30.6921 195.884 31.2167 193.93 31.2167Z" fill="#00CCFF"/>
<path d="M212.278 31.1588C210.797 31.1588 209.46 30.8194 208.267 30.1406C207.094 29.4617 206.158 28.5257 205.459 27.3326C204.78 26.1188 204.44 24.72 204.44 23.136C204.44 21.552 204.79 20.1634 205.489 18.9703C206.189 17.7566 207.125 16.8103 208.297 16.1314C209.491 15.4526 210.828 15.1131 212.309 15.1131C213.769 15.1131 215.086 15.4526 216.259 16.1314C217.452 16.8103 218.388 17.7566 219.067 18.9703C219.766 20.1634 220.116 21.552 220.116 23.136C220.116 24.72 219.766 26.1188 219.067 27.3326C218.388 28.5257 217.452 29.4617 216.259 30.1406C215.065 30.8194 213.739 31.1588 212.278 31.1588ZM212.278 27.7337C213.307 27.7337 214.201 27.3531 214.963 26.592C215.724 25.8103 216.104 24.6583 216.104 23.136C216.104 21.6137 215.724 20.472 214.963 19.7108C214.201 18.9291 213.317 18.5383 212.309 18.5383C211.26 18.5383 210.355 18.9291 209.593 19.7108C208.853 20.472 208.483 21.6137 208.483 23.136C208.483 24.6583 208.853 25.8103 209.593 26.592C210.355 27.3531 211.249 27.7337 212.278 27.7337Z" fill="#00CCFF"/>
<path d="M230.683 31.1588C229.243 31.1588 227.957 30.8091 226.826 30.1097C225.694 29.4103 224.799 28.4537 224.141 27.24C223.483 26.0263 223.154 24.648 223.154 23.1051C223.154 21.5623 223.483 20.1943 224.141 19.0011C224.799 17.7874 225.694 16.8411 226.826 16.1623C227.957 15.4628 229.243 15.1131 230.683 15.1131C231.835 15.1131 232.843 15.3291 233.707 15.7611C234.571 16.1931 235.27 16.8 235.805 17.5817V8.57141H239.755V30.7886H236.237L235.805 28.5977C235.311 29.2766 234.653 29.8731 233.83 30.3874C233.028 30.9017 231.979 31.1588 230.683 31.1588ZM231.516 27.7028C232.791 27.7028 233.83 27.2811 234.632 26.4377C235.455 25.5737 235.867 24.4731 235.867 23.136C235.867 21.7988 235.455 20.7086 234.632 19.8651C233.83 19.0011 232.791 18.5691 231.516 18.5691C230.261 18.5691 229.222 18.9908 228.399 19.8343C227.576 20.6777 227.165 21.768 227.165 23.1051C227.165 24.4423 227.576 25.5428 228.399 26.4068C229.222 27.2708 230.261 27.7028 231.516 27.7028Z" fill="#00CCFF"/>
<path d="M251.213 31.1588C249.67 31.1588 248.302 30.8297 247.109 30.1714C245.916 29.5131 244.98 28.5874 244.301 27.3943C243.622 26.2011 243.283 24.8228 243.283 23.2594C243.283 21.6754 243.612 20.2663 244.27 19.032C244.949 17.7977 245.875 16.8411 247.048 16.1623C248.241 15.4628 249.64 15.1131 251.244 15.1131C252.746 15.1131 254.073 15.4423 255.225 16.1006C256.377 16.7588 257.272 17.664 257.909 18.816C258.568 19.9474 258.897 21.2126 258.897 22.6114C258.897 22.8377 258.886 23.0743 258.866 23.3211C258.866 23.568 258.856 23.8251 258.835 24.0926H247.202C247.284 25.2857 247.696 26.2217 248.436 26.9006C249.197 27.5794 250.113 27.9188 251.182 27.9188C251.985 27.9188 252.653 27.744 253.188 27.3943C253.744 27.024 254.155 26.5508 254.422 25.9748H258.434C258.146 26.9417 257.662 27.8263 256.984 28.6286C256.325 29.4103 255.502 30.0274 254.515 30.48C253.548 30.9326 252.448 31.1588 251.213 31.1588ZM251.244 18.3223C250.277 18.3223 249.424 18.6 248.683 19.1554C247.942 19.6903 247.469 20.5131 247.264 21.624H254.885C254.824 20.616 254.453 19.8137 253.774 19.2171C253.096 18.6206 252.252 18.3223 251.244 18.3223Z" fill="#00CCFF"/>
</svg>
