<svg width="320" height="80" viewBox="0 0 320 80" fill="none" xmlns="http://www.w3.org/2000/svg">
<path d="M23.7778 20.5556H14.8329V60.1111H23.7778V63.6667H10.6667L10.6667 17H23.7778V20.5556Z" fill="#0F3665"/>
<path d="M44 20.5556H52.9449V60.1111H44V63.6667H57.1111L57.1111 17H44V20.5556Z" fill="#0F3665"/>
<rect x="23.5555" y="32.1111" width="46.2222" height="7.55556" rx="3.77778" fill="#00CCFF"/>
<path d="M87.34 53V27.08H91.948V37.88C92.548 36.896 93.352 36.128 94.36 35.576C95.392 35 96.568 34.712 97.888 34.712C100.096 34.712 101.8 35.408 103 36.8C104.224 38.192 104.836 40.232 104.836 42.92V53H100.264V43.352C100.264 41.816 99.952 40.64 99.328 39.824C98.728 39.008 97.768 38.6 96.448 38.6C95.152 38.6 94.072 39.056 93.208 39.968C92.368 40.88 91.948 42.152 91.948 43.784V53H87.34ZM115.398 53.432C113.862 53.432 112.602 53.192 111.618 52.712C110.634 52.208 109.902 51.548 109.422 50.732C108.942 49.916 108.702 49.016 108.702 48.032C108.702 46.376 109.35 45.032 110.646 44C111.942 42.968 113.886 42.452 116.478 42.452H121.014V42.02C121.014 40.796 120.666 39.896 119.97 39.32C119.274 38.744 118.41 38.456 117.378 38.456C116.442 38.456 115.626 38.684 114.93 39.14C114.234 39.572 113.802 40.22 113.634 41.084H109.134C109.254 39.788 109.686 38.66 110.43 37.7C111.198 36.74 112.182 36.008 113.382 35.504C114.582 34.976 115.926 34.712 117.414 34.712C119.958 34.712 121.962 35.348 123.426 36.62C124.89 37.892 125.622 39.692 125.622 42.02V53H121.698L121.266 50.12C120.738 51.08 119.994 51.872 119.034 52.496C118.098 53.12 116.886 53.432 115.398 53.432ZM116.442 49.832C117.762 49.832 118.782 49.4 119.502 48.536C120.246 47.672 120.714 46.604 120.906 45.332H116.982C115.758 45.332 114.882 45.56 114.354 46.016C113.826 46.448 113.562 46.988 113.562 47.636C113.562 48.332 113.826 48.872 114.354 49.256C114.882 49.64 115.578 49.832 116.442 49.832ZM130.02 53V35.144H134.088L134.484 37.556C135.06 36.692 135.816 36.008 136.752 35.504C137.712 34.976 138.816 34.712 140.064 34.712C142.824 34.712 144.78 35.78 145.932 37.916C146.58 36.932 147.444 36.152 148.524 35.576C149.628 35 150.828 34.712 152.124 34.712C154.452 34.712 156.24 35.408 157.488 36.8C158.736 38.192 159.36 40.232 159.36 42.92V53H154.752V43.352C154.752 41.816 154.452 40.64 153.852 39.824C153.276 39.008 152.376 38.6 151.152 38.6C149.904 38.6 148.896 39.056 148.128 39.968C147.384 40.88 147.012 42.152 147.012 43.784V53H142.404V43.352C142.404 41.816 142.104 40.64 141.504 39.824C140.904 39.008 139.98 38.6 138.732 38.6C137.508 38.6 136.512 39.056 135.744 39.968C135 40.88 134.628 42.152 134.628 43.784V53H130.02ZM163.735 53V35.144H167.803L168.199 37.556C168.775 36.692 169.531 36.008 170.467 35.504C171.427 34.976 172.531 34.712 173.779 34.712C176.539 34.712 178.495 35.78 179.647 37.916C180.295 36.932 181.159 36.152 182.239 35.576C183.343 35 184.543 34.712 185.839 34.712C188.167 34.712 189.955 35.408 191.203 36.8C192.451 38.192 193.075 40.232 193.075 42.92V53H188.467V43.352C188.467 41.816 188.167 40.64 187.567 39.824C186.991 39.008 186.091 38.6 184.867 38.6C183.619 38.6 182.611 39.056 181.843 39.968C181.099 40.88 180.727 42.152 180.727 43.784V53H176.119V43.352C176.119 41.816 175.819 40.64 175.219 39.824C174.619 39.008 173.695 38.6 172.447 38.6C171.223 38.6 170.227 39.056 169.459 39.968C168.715 40.88 168.343 42.152 168.343 43.784V53H163.735ZM206.125 53.432C204.325 53.432 202.729 53.048 201.337 52.28C199.945 51.512 198.853 50.432 198.061 49.04C197.269 47.648 196.873 46.04 196.873 44.216C196.873 42.368 197.257 40.724 198.025 39.284C198.817 37.844 199.897 36.728 201.265 35.936C202.657 35.12 204.289 34.712 206.161 34.712C207.913 34.712 209.461 35.096 210.805 35.864C212.149 36.632 213.193 37.688 213.937 39.032C214.705 40.352 215.089 41.828 215.089 43.46C215.089 43.724 215.077 44 215.053 44.288C215.053 44.576 215.041 44.876 215.017 45.188H201.445C201.541 46.58 202.021 47.672 202.885 48.464C203.773 49.256 204.841 49.652 206.089 49.652C207.025 49.652 207.805 49.448 208.429 49.04C209.077 48.608 209.557 48.056 209.869 47.384H214.549C214.213 48.512 213.649 49.544 212.857 50.48C212.089 51.392 211.129 52.112 209.977 52.64C208.849 53.168 207.565 53.432 206.125 53.432ZM206.161 38.456C205.033 38.456 204.037 38.78 203.173 39.428C202.309 40.052 201.757 41.012 201.517 42.308H210.409C210.337 41.132 209.905 40.196 209.113 39.5C208.321 38.804 207.337 38.456 206.161 38.456ZM218.965 53V35.144H223.069L223.501 38.492C224.149 37.34 225.025 36.428 226.129 35.756C227.257 35.06 228.577 34.712 230.089 34.712V39.572H228.793C227.785 39.572 226.885 39.728 226.093 40.04C225.301 40.352 224.677 40.892 224.221 41.66C223.789 42.428 223.573 43.496 223.573 44.864V53H218.965Z" fill="#0F3665"/>
<path d="M241.986 53.432C240.162 53.432 238.554 53.036 237.162 52.244C235.77 51.452 234.666 50.348 233.85 48.932C233.058 47.516 232.662 45.896 232.662 44.072C232.662 42.248 233.058 40.628 233.85 39.212C234.666 37.796 235.77 36.692 237.162 35.9C238.554 35.108 240.162 34.712 241.986 34.712C244.266 34.712 246.186 35.312 247.746 36.512C249.306 37.688 250.302 39.32 250.734 41.408H245.874C245.634 40.544 245.154 39.872 244.434 39.392C243.738 38.888 242.91 38.636 241.95 38.636C240.678 38.636 239.598 39.116 238.71 40.076C237.822 41.036 237.378 42.368 237.378 44.072C237.378 45.776 237.822 47.108 238.71 48.068C239.598 49.028 240.678 49.508 241.95 49.508C242.91 49.508 243.738 49.268 244.434 48.788C245.154 48.308 245.634 47.624 245.874 46.736H250.734C250.302 48.752 249.306 50.372 247.746 51.596C246.186 52.82 244.266 53.432 241.986 53.432ZM263.392 53.432C261.664 53.432 260.104 53.036 258.712 52.244C257.344 51.452 256.252 50.36 255.436 48.968C254.644 47.552 254.248 45.92 254.248 44.072C254.248 42.224 254.656 40.604 255.472 39.212C256.288 37.796 257.38 36.692 258.748 35.9C260.14 35.108 261.7 34.712 263.428 34.712C265.132 34.712 266.668 35.108 268.036 35.9C269.428 36.692 270.52 37.796 271.312 39.212C272.128 40.604 272.536 42.224 272.536 44.072C272.536 45.92 272.128 47.552 271.312 48.968C270.52 50.36 269.428 51.452 268.036 52.244C266.644 53.036 265.096 53.432 263.392 53.432ZM263.392 49.436C264.592 49.436 265.636 48.992 266.524 48.104C267.412 47.192 267.856 45.848 267.856 44.072C267.856 42.296 267.412 40.964 266.524 40.076C265.636 39.164 264.604 38.708 263.428 38.708C262.204 38.708 261.148 39.164 260.26 40.076C259.396 40.964 258.964 42.296 258.964 44.072C258.964 45.848 259.396 47.192 260.26 48.104C261.148 48.992 262.192 49.436 263.392 49.436ZM284.864 53.432C283.184 53.432 281.684 53.024 280.364 52.208C279.044 51.392 278 50.276 277.232 48.86C276.464 47.444 276.08 45.836 276.08 44.036C276.08 42.236 276.464 40.64 277.232 39.248C278 37.832 279.044 36.728 280.364 35.936C281.684 35.12 283.184 34.712 284.864 34.712C286.208 34.712 287.384 34.964 288.392 35.468C289.4 35.972 290.216 36.68 290.84 37.592V27.08H295.448V53H291.344L290.84 50.444C290.264 51.236 289.496 51.932 288.536 52.532C287.6 53.132 286.376 53.432 284.864 53.432ZM285.836 49.4C287.324 49.4 288.536 48.908 289.472 47.924C290.432 46.916 290.912 45.632 290.912 44.072C290.912 42.512 290.432 41.24 289.472 40.256C288.536 39.248 287.324 38.744 285.836 38.744C284.372 38.744 283.16 39.236 282.2 40.22C281.24 41.204 280.76 42.476 280.76 44.036C280.76 45.596 281.24 46.88 282.2 47.888C283.16 48.896 284.372 49.4 285.836 49.4ZM308.817 53.432C307.017 53.432 305.421 53.048 304.029 52.28C302.637 51.512 301.545 50.432 300.753 49.04C299.961 47.648 299.565 46.04 299.565 44.216C299.565 42.368 299.949 40.724 300.717 39.284C301.509 37.844 302.589 36.728 303.957 35.936C305.349 35.12 306.981 34.712 308.853 34.712C310.605 34.712 312.153 35.096 313.497 35.864C314.841 36.632 315.885 37.688 316.629 39.032C317.397 40.352 317.781 41.828 317.781 43.46C317.781 43.724 317.769 44 317.745 44.288C317.745 44.576 317.733 44.876 317.709 45.188H304.137C304.233 46.58 304.713 47.672 305.577 48.464C306.465 49.256 307.533 49.652 308.781 49.652C309.717 49.652 310.497 49.448 311.121 49.04C311.769 48.608 312.249 48.056 312.561 47.384H317.241C316.905 48.512 316.341 49.544 315.549 50.48C314.781 51.392 313.821 52.112 312.669 52.64C311.541 53.168 310.257 53.432 308.817 53.432ZM308.853 38.456C307.725 38.456 306.729 38.78 305.865 39.428C305.001 40.052 304.449 41.012 304.209 42.308H313.101C313.029 41.132 312.597 40.196 311.805 39.5C311.013 38.804 310.029 38.456 308.853 38.456Z" fill="#00CCFF"/>
</svg>
