<svg width="128" height="29" viewBox="0 0 128 29" fill="none" xmlns="http://www.w3.org/2000/svg">
<g clip-path="url(#clip0)">
<path d="M68.6924 28.6895H64.7731L68.2086 8.2981H72.128L68.6924 28.6895Z" fill="white"/>
<path d="M76.0474 8.29565C71.7133 8.29565 67.6173 11.8016 66.8903 16.1259C66.1632 20.4502 69.0765 23.9536 73.4055 23.9536C77.7344 23.9536 81.8356 20.4502 82.5626 16.1259C83.2896 11.8016 80.3738 8.29565 76.0474 8.29565ZM74.066 20.041C71.9028 20.041 70.4436 18.2868 70.8071 16.1259C71.1706 13.9651 73.2212 12.2108 75.3869 12.2108C77.5527 12.2108 79.0093 13.9625 78.6458 16.1259C78.2823 18.2893 76.2292 20.041 74.066 20.041Z" fill="white"/>
<path d="M86.0109 28.6895H82.0916L85.5296 8.2981H89.449L86.0109 28.6895Z" fill="white"/>
<path d="M93.3683 8.29565C89.0393 8.29565 84.9382 11.8016 84.2086 16.1259C83.479 20.4502 86.3974 23.9536 90.7263 23.9536C95.0553 23.9536 99.1539 20.4502 99.8732 16.1259C100.593 11.8016 97.6947 8.29565 93.3683 8.29565ZM91.3868 20.041C89.2211 20.041 87.7644 18.2868 88.1279 16.1259C88.4915 13.9651 90.542 12.2108 92.7052 12.2108C94.8684 12.2108 96.3276 13.9625 95.9641 16.1259C95.6006 18.2893 93.55 20.041 91.3868 20.041Z" fill="white"/>
<path d="M112.282 18.2689C112.106 18.4798 111.915 18.6765 111.708 18.857C110.881 19.5993 109.814 20.0196 108.703 20.041C106.537 20.041 105.078 18.2868 105.444 16.1259C105.81 13.9651 107.858 12.2108 110.021 12.2108C112.184 12.2108 113.646 13.9625 113.28 16.1259C113.192 16.643 113.011 17.1401 112.748 17.5938H116.813C116.985 17.117 117.115 16.6257 117.199 16.1259C117.929 11.8016 115.011 8.29565 110.682 8.29565C106.353 8.29565 102.254 11.8016 101.525 16.1259C100.795 20.4502 103.713 23.9536 108.042 23.9536C110.229 23.9121 112.33 23.0965 113.971 21.6521C114.535 21.1721 115.044 20.6319 115.489 20.041L112.282 18.2689Z" fill="white"/>
<path d="M116.511 17.5937H101.716L102.211 14.658H117.007L116.511 17.5937Z" fill="white"/>
<path d="M121.441 23.9561H117.522L120.164 8.2981H124.081L121.441 23.9561Z" fill="white"/>
<path d="M128 8.29565L118.843 16.1259L128 8.29565ZM122.762 16.1259C123.126 13.9625 125.176 12.2108 127.34 12.2108L128 8.29565C123.681 8.29565 119.585 11.8016 118.843 16.1259H122.762ZM122.762 16.1259L127.67 10.2443L122.762 16.1259Z" fill="white"/>
<path d="M48.5837 23.9562H44.6643L48.2048 2.44727H52.2112L48.5837 23.9562Z" fill="white"/>
<path d="M55.1424 8.29565C49.2544 8.29565 46.7123 11.8016 45.9853 16.1285L44.6643 23.9536H48.5837L50.0685 15.1491C50.2229 14.3435 50.6467 13.6143 51.2705 13.0809C51.8942 12.5475 52.6808 12.2416 53.5014 12.2133C55.1245 12.2133 56.2201 13.5278 55.9462 15.1491L54.4614 23.9562H58.3782L60.0294 14.1696C60.5773 10.9245 58.4013 8.29565 55.1424 8.29565Z" fill="white"/>
<path d="M63.936 23.9561H60.0192L62.6585 8.2981H66.5779L63.936 23.9561Z" fill="white"/>
<path d="M65.2289 6.41363C66.3288 6.41363 67.2206 5.52289 67.2206 4.4241C67.2206 3.32531 66.3288 2.43457 65.2289 2.43457C64.1289 2.43457 63.2372 3.32531 63.2372 4.4241C63.2372 5.52289 64.1289 6.41363 65.2289 6.41363Z" fill="white"/>
<path d="M42.176 7.88646C41.3056 6.78173 39.849 6.21914 38.2669 6.21914C36.7309 6.21914 35.1949 6.95307 35.1949 8.59226C35.1949 10.1726 36.5184 10.8273 38.5383 11.6456L38.6509 11.6916C41.0368 12.6455 44.0064 13.832 44.0064 17.54C44.0267 18.4594 43.8309 19.3706 43.4348 20.2007C43.0387 21.0307 42.4532 21.7564 41.7255 22.3195C40.3738 23.3859 38.5383 23.9766 36.5568 23.9766C35.2219 23.9844 33.8998 23.7157 32.6741 23.1875C31.4483 22.6593 30.3454 21.8832 29.4349 20.9079L29.3223 20.7852L32.2125 17.9006L32.3328 18.0464C32.8794 18.6989 33.5611 19.2252 34.331 19.589C35.1009 19.9528 35.9407 20.1454 36.7923 20.1535C38.3283 20.1535 40.0077 19.4529 40.0077 17.9159C40.0077 16.5146 38.4717 15.8702 36.6797 15.1158L36.4851 15.0339C34.2631 14.1031 31.2192 12.8245 31.2192 8.94004C31.2192 4.66434 34.8647 2.42676 38.4666 2.42676H38.5383C41.0215 2.42676 43.2205 3.33202 44.8461 5.2167L42.176 7.88646Z" fill="white"/>
<path d="M1.59229 7.173H25.2057L25.5846 4.78198H3.98333L1.59229 7.173Z" fill="#FFFFFF"/>
<path d="M8.50174 0.25584L6.36926 2.38858H26.0096L26.2656 0.785188C26.2807 0.687791 26.2746 0.588272 26.2476 0.493469C26.2206 0.398667 26.1734 0.310829 26.1091 0.235992C26.0449 0.161155 25.9653 0.101094 25.8756 0.0599353C25.7859 0.0187768 25.6884 -0.00250282 25.5897 -0.00244127H9.12382C8.8905 -0.00155214 8.66696 0.0912621 8.50174 0.25584Z" fill="#FFFFFF"/>
<path d="M19.8835 11.955L17.4924 9.56396H1.59229L3.98332 11.955H19.8835Z" fill="#FFFFFF"/>
<path d="M6.36926 14.3462L8.7603 16.7372H24.6605L22.2694 14.3462H6.36926Z" fill="#FFFFFF"/>
<path d="M24.6836 19.1282H1.05989L0.665649 21.5192H22.2925L24.6836 19.1282Z" fill="#FFFFFF"/>
<path d="M0.271384 23.9128L0.015384 25.4881C-0.00133531 25.5884 0.00400387 25.6912 0.0310308 25.7892C0.0580577 25.8872 0.106125 25.9782 0.171893 26.0559C0.237662 26.1335 0.319557 26.1959 0.41189 26.2387C0.504223 26.2815 0.604782 26.3038 0.706584 26.3039H17.1495C17.3824 26.3034 17.6058 26.2115 17.7715 26.0481L19.904 23.9128H0.271384Z" fill="#FFFFFF"/>
</g>
<defs>
<clipPath id="clip0">
<rect width="128" height="28.6897" fill="white"/>
</clipPath>
</defs>
</svg>
