<svg width="28" height="22" viewBox="0 0 28 22" fill="none" xmlns="http://www.w3.org/2000/svg">
<path d="M23.6915 1.94939C21.9182 1.12444 19.9981 0.525693 17.998 0.179749C17.9805 0.179189 17.9631 0.182473 17.9469 0.18937C17.9308 0.196266 17.9164 0.206608 17.9047 0.219666C17.6647 0.658749 17.3847 1.23089 17.198 1.66997C15.0766 1.35064 12.9192 1.35064 10.7978 1.66997C10.6112 1.21758 10.3312 0.658749 10.0778 0.219666C10.0645 0.193055 10.0245 0.179749 9.98449 0.179749C7.98444 0.525693 6.07772 1.12444 4.291 1.94939C4.27767 1.94939 4.26434 1.96269 4.251 1.976C0.624236 7.39136 -0.375792 12.6604 0.117555 17.8761C0.117555 17.9028 0.130889 17.9294 0.157556 17.9427C2.55762 19.699 4.86435 20.7635 7.14441 21.4686C7.18442 21.482 7.22442 21.4687 7.23775 21.442C7.7711 20.7102 8.25111 19.9385 8.66446 19.1269C8.69112 19.0736 8.66446 19.0204 8.61112 19.0071C7.8511 18.7144 7.13108 18.3685 6.4244 17.9693C6.37106 17.9427 6.37106 17.8628 6.41106 17.8229C6.55773 17.7165 6.7044 17.5967 6.85107 17.4903C6.87774 17.4637 6.91774 17.4637 6.94441 17.477C11.5312 19.566 16.478 19.566 21.0115 17.477C21.0381 17.4637 21.0781 17.4637 21.1048 17.4903C21.2515 17.61 21.3981 17.7165 21.5448 17.8362C21.5981 17.8761 21.5981 17.956 21.5315 17.9826C20.8381 18.3951 20.1048 18.7277 19.3447 19.0204C19.2914 19.0337 19.2781 19.1003 19.2914 19.1402C19.7181 19.9518 20.1981 20.7235 20.7181 21.4553C20.7581 21.4687 20.7981 21.482 20.8381 21.4686C23.1315 20.7635 25.4382 19.699 27.8383 17.9427C27.865 17.9294 27.8783 17.9028 27.8783 17.8761C28.465 11.8487 26.905 6.61964 23.7449 1.976C23.7315 1.96269 23.7182 1.94939 23.6915 1.94939ZM9.35781 14.6961C7.98444 14.6961 6.83774 13.4321 6.83774 11.8753C6.83774 10.3186 7.95777 9.05456 9.35781 9.05456C10.7712 9.05456 11.8912 10.3319 11.8779 11.8753C11.8779 13.4321 10.7578 14.6961 9.35781 14.6961ZM18.6514 14.6961C17.278 14.6961 16.1313 13.4321 16.1313 11.8753C16.1313 10.3186 17.2514 9.05456 18.6514 9.05456C20.0648 9.05456 21.1848 10.3319 21.1715 11.8753C21.1715 13.4321 20.0648 14.6961 18.6514 14.6961Z" fill="white"/>
</svg>
