<svg width="128" height="128" viewBox="0 0 128 128" fill="none" xmlns="http://www.w3.org/2000/svg">
<g clip-path="url(#clip0_1680_499)">
<path d="M9.65887 54.5648C9.4082 54.5648 9.34953 54.4421 9.4722 54.2501L10.7842 52.5701C10.9069 52.3834 11.2162 52.2608 11.4669 52.2608H33.7175C33.9629 52.2608 34.0269 52.4474 33.9042 52.6341L32.8429 54.2501C32.7202 54.4421 32.4055 54.6234 32.2189 54.6234L9.65887 54.5648ZM0.250866 60.2981C0.000198921 60.2981 -0.0638011 60.1754 0.0641989 59.9888L1.37087 58.3034C1.49353 58.1168 1.8082 57.9941 2.05887 57.9941H30.4749C30.7255 57.9941 30.8482 58.1808 30.7842 58.3674L30.2882 59.8608C30.2242 60.1114 29.9789 60.2341 29.7282 60.2341L0.250866 60.2981ZM15.3335 66.0314C15.0829 66.0314 15.0189 65.8448 15.1469 65.6581L16.0162 64.1008C16.1389 63.9141 16.3895 63.7274 16.6402 63.7274H29.1042C29.3549 63.7274 29.4775 63.9141 29.4775 64.1648L29.3549 65.6581C29.3549 65.9088 29.1042 66.0954 28.9175 66.0954L15.3335 66.0314ZM80.0215 53.4448C76.0962 54.4421 73.4135 55.1888 69.5522 56.1861C68.6135 56.4314 68.5549 56.4954 67.7389 55.5621C66.8109 54.5008 66.1229 53.8181 64.8162 53.1941C60.8855 51.2634 57.0829 51.8234 53.5362 54.1274C49.2962 56.8688 47.1149 60.9221 47.1789 65.9674C47.2375 70.9541 50.6669 75.0661 55.5895 75.7541C59.8295 76.3141 63.3762 74.8208 66.1869 71.6474C66.7469 70.9541 67.2429 70.2074 67.8669 69.3328H55.8402C54.5335 69.3328 54.2189 68.5221 54.6562 67.4661C55.4669 65.5354 56.9602 62.2928 57.8349 60.6714C57.9712 60.3731 58.1906 60.1204 58.4667 59.9435C58.7429 59.7667 59.0642 59.6731 59.3922 59.6741H82.0749C81.9522 61.3594 81.9522 63.0394 81.7015 64.7248C81.0522 69.1606 79.2949 73.3612 76.5922 76.9381C72.1069 82.8581 66.2455 86.5381 58.8322 87.5301C52.7255 88.3408 47.0509 87.1568 42.0695 83.4234C37.4562 79.9301 34.8375 75.3168 34.1549 69.5834C33.3442 62.7888 35.3389 56.6821 39.4509 51.3221C43.8775 45.5301 49.7335 41.8501 56.9015 40.5488C62.7575 39.4821 68.3682 40.1754 73.4135 43.5941C76.7202 45.7808 79.0829 48.7674 80.6455 52.3834C81.0189 52.9434 80.7682 53.2581 80.0215 53.4501M100.651 87.9088C94.9762 87.7808 89.8029 86.1594 85.4402 82.4208C81.8128 79.3604 79.4209 75.0864 78.7095 70.3941C77.5895 63.3541 79.5202 57.1194 83.7602 51.5728C88.3095 45.5888 93.7922 42.4741 101.211 41.1728C107.568 40.0528 113.552 40.6661 118.971 44.3461C123.894 47.7061 126.95 52.2608 127.76 58.2394C128.816 66.6554 126.39 73.5088 120.592 79.3701C116.48 83.5461 111.43 86.1594 105.632 87.3434C103.952 87.6634 102.272 87.7168 100.651 87.9088ZM115.478 62.7354C115.419 61.9194 115.419 61.2954 115.296 60.6714C114.176 54.5008 108.502 51.0181 102.582 52.3834C96.7842 53.6901 93.0455 57.3701 91.6749 63.2261C90.5549 68.0901 92.9229 73.0128 97.4082 75.0128C100.838 76.5061 104.262 76.3141 107.568 74.6394C112.491 72.0794 115.168 68.0901 115.483 62.7301L115.478 62.7354Z" fill="#00ACD7"/>
</g>
<defs>
<clipPath id="clip0_1680_499">
<rect width="128" height="128" fill="white"/>
</clipPath>
</defs>
</svg>
