<svg width="737" height="636" viewBox="0 0 737 636" fill="none" xmlns="http://www.w3.org/2000/svg">
<path d="M156.134 424.257V0H273.604V32.8457H193.575V391.868H273.604V424.257H156.134Z" fill="white"/>
<path d="M580.866 0V424.257H463.396V391.868H543.425V32.8457H463.396V0H580.866Z" fill="white"/>
<path d="M309.226 137H662.774C682.843 137 699 153.056 699 173C699 192.944 682.843 209 662.774 209H309.226C289.157 209 273 192.944 273 173C273 153.056 289.157 137 309.226 137Z" fill="#25C5F2"/>
<path d="M36.2206 574.233C28.5777 574.233 21.9317 576.67 17.2796 581.322V552.523H0V634.711H17.2796V605.247C17.2796 594.281 23.2608 589.186 31.5683 589.186C39.2111 589.186 43.6418 593.617 43.6418 603.254V634.711H60.9213V600.595C60.9213 582.43 50.2879 574.233 36.2206 574.233V574.233Z" fill="white"/>
<path d="M96.4008 574.233C86.875 574.233 77.2382 576.78 70.703 581.433L76.9059 593.506C81.2258 590.072 87.761 587.968 94.0747 587.968C103.379 587.968 107.81 592.288 107.81 599.709H94.0747C75.909 599.709 68.4878 607.02 68.4878 617.542C68.4878 627.844 76.7951 635.597 90.7517 635.597C99.5022 635.597 105.705 632.717 108.917 627.29V634.711H125.089V600.706C125.089 582.651 114.566 574.233 96.4008 574.233V574.233ZM95.0716 623.967C88.9795 623.967 85.3242 621.087 85.3242 616.767C85.3242 612.779 87.8718 609.789 95.9577 609.789H107.81V615.881C105.816 621.308 100.831 623.967 95.0716 623.967Z" fill="white"/>
<path d="M212.826 574.233C203.854 574.233 196.1 577.888 191.337 583.98C187.128 577.445 180.039 574.233 171.732 574.233C164.089 574.233 157.443 576.891 153.012 581.986V575.119H136.508V634.711H153.788V604.804C153.788 594.171 159.215 589.186 166.858 589.186C174.058 589.186 178.156 593.617 178.156 603.254V634.711H195.436V604.804C195.436 594.171 200.863 589.186 208.617 589.186C215.595 589.186 219.915 593.617 219.915 603.254V634.711H237.195V600.595C237.195 582.429 227.004 574.233 212.826 574.233V574.233Z" fill="white"/>
<path d="M324.781 574.233C315.809 574.233 308.055 577.888 303.292 583.98C299.083 577.445 291.994 574.233 283.687 574.233C276.044 574.233 269.398 576.891 264.967 581.986V575.119H248.463V634.711H265.742V604.804C265.742 594.171 271.17 589.186 278.813 589.186C286.013 589.186 290.111 593.617 290.111 603.254V634.711H307.39V604.804C307.39 594.171 312.818 589.186 320.572 589.186C327.55 589.186 331.87 593.617 331.87 603.254V634.711H349.149V600.595C349.149 582.429 338.959 574.233 324.781 574.233Z" fill="white"/>
<path d="M419.441 605.137C419.441 585.974 405.927 574.233 388.426 574.233C370.26 574.233 356.636 587.082 356.636 604.915C356.636 622.638 370.039 635.597 390.641 635.597C401.386 635.597 409.693 632.274 415.231 625.961L406.038 615.992C401.94 619.868 397.398 621.751 391.085 621.751C382.002 621.751 375.688 617.21 374.027 609.789H419.108C419.219 608.349 419.441 606.466 419.441 605.137V605.137ZM388.537 587.303C396.29 587.303 401.94 592.177 403.158 599.709H373.805C375.023 592.066 380.672 587.303 388.537 587.303Z" fill="white"/>
<path d="M443.229 582.983V575.119H426.725V634.711H444.005V606.577C444.005 595.168 450.318 589.962 459.844 589.962C461.173 589.962 462.281 590.072 463.721 590.183V574.233C454.527 574.233 447.438 577.223 443.229 582.983V582.983Z" fill="white"/>
<path d="M506.34 635.597C518.857 635.597 528.715 630.059 533.035 620.533L519.632 613.222C516.42 618.982 511.657 621.419 506.229 621.419C497.479 621.419 490.611 615.327 490.611 604.915C490.611 594.503 497.479 588.411 506.229 588.411C511.657 588.411 516.42 590.959 519.632 596.608L533.035 589.408C528.715 579.66 518.857 574.233 506.34 574.233C486.956 574.233 473.11 586.971 473.11 604.915C473.11 622.859 486.956 635.597 506.34 635.597V635.597Z" fill="white"/>
<path d="M566.363 635.597C585.304 635.597 599.039 622.859 599.039 604.915C599.039 586.971 585.304 574.233 566.363 574.233C547.422 574.233 533.577 586.971 533.577 604.915C533.577 622.859 547.422 635.597 566.363 635.597ZM566.363 621.419C557.724 621.419 551.078 615.216 551.078 604.915C551.078 594.614 557.724 588.411 566.363 588.411C575.003 588.411 581.538 594.614 581.538 604.915C581.538 615.216 575.003 621.419 566.363 621.419Z" fill="white"/>
<path d="M649.682 552.523V581.433C645.362 576.559 639.159 574.233 631.848 574.233C615.012 574.233 602.052 586.196 602.052 604.915C602.052 623.635 615.012 635.597 631.848 635.597C639.823 635.597 646.137 633.05 650.457 627.844V634.711H666.961V552.523H649.682ZM634.839 621.419C626.199 621.419 619.553 615.216 619.553 604.915C619.553 594.614 626.199 588.411 634.839 588.411C643.368 588.411 650.014 594.614 650.014 604.915C650.014 615.216 643.368 621.419 634.839 621.419Z" fill="white"/>
<path d="M737 605.137C737 585.974 723.486 574.233 705.985 574.233C687.82 574.233 674.195 587.082 674.195 604.915C674.195 622.638 687.598 635.597 708.201 635.597C718.945 635.597 727.252 632.274 732.791 625.961L723.597 615.992C719.499 619.868 714.957 621.751 708.644 621.751C699.561 621.751 693.247 617.21 691.586 609.789H736.667C736.778 608.349 737 606.466 737 605.137V605.137ZM706.096 587.303C713.85 587.303 719.499 592.177 720.717 599.709H691.364C692.583 592.066 698.232 587.303 706.096 587.303Z" fill="white"/>
</svg>
