<svg width="26" height="25" viewBox="0 0 26 25" fill="none" xmlns="http://www.w3.org/2000/svg">
<path d="M25.9163 7.35887C25.9004 6.34865 25.6982 5.34642 25.3113 4.40159C24.6342 2.78815 23.2553 1.51236 21.5098 0.887802C20.5006 0.536824 19.4336 0.348657 18.3536 0.327305C16.9647 0.269921 16.5243 0.253906 12.9986 0.253906C9.47279 0.253906 9.02088 0.253906 7.64205 0.327305C6.56353 0.348657 5.49656 0.536824 4.48734 0.887802C2.74178 1.51236 1.36151 2.78815 0.685806 4.40159C0.306086 5.33441 0.101066 6.32062 0.0808529 7.3175C0.0187694 8.60264 0 9.00967 0 12.2686C0 15.5275 -1.49012e-08 15.9438 0.0808529 17.2196C0.10251 18.2178 0.306086 19.2027 0.685806 20.1382C1.36295 21.7503 2.74178 23.0261 4.48878 23.6507C5.49367 24.0136 6.56064 24.2192 7.64349 24.2512C9.03388 24.3086 9.47424 24.3259 13 24.3259C16.5258 24.3259 16.9777 24.3259 18.3565 24.2512C19.435 24.2312 20.502 24.043 21.5127 23.692C23.2582 23.0661 24.6371 21.7903 25.3142 20.1782C25.6939 19.2441 25.8975 18.2592 25.9191 17.2597C25.9812 15.9759 26 15.5688 26 12.3086C25.9971 9.04971 25.9971 8.63601 25.9163 7.35887ZM12.9899 18.4314C9.30242 18.4314 6.31519 15.6702 6.31519 12.2619C6.31519 8.85353 9.30242 6.09242 12.9899 6.09242C16.6745 6.09242 19.6646 8.85353 19.6646 12.2619C19.6646 15.6702 16.6745 18.4314 12.9899 18.4314ZM19.9303 7.30282C19.0683 7.30282 18.3738 6.65959 18.3738 5.86422C18.3738 5.06884 19.0683 4.42561 19.9303 4.42561C20.7893 4.42561 21.4852 5.06884 21.4852 5.86422C21.4852 6.65959 20.7893 7.30282 19.9303 7.30282Z" fill="white"/>
<path d="M12.99 16.269C15.3846 16.269 17.3258 14.4748 17.3258 12.2615C17.3258 10.0481 15.3846 8.25391 12.99 8.25391C10.5955 8.25391 8.6543 10.0481 8.6543 12.2615C8.6543 14.4748 10.5955 16.269 12.99 16.269Z" fill="white"/>
</svg>
