<svg width="24" height="24" viewBox="0 0 24 24" fill="none" xmlns="http://www.w3.org/2000/svg">
<path d="M6.94043 4.99905C6.94016 5.52948 6.7292 6.03808 6.35394 6.41297C5.97868 6.78785 5.46986 6.99831 4.93943 6.99805C4.409 6.99778 3.90039 6.78681 3.52551 6.41155C3.15062 6.03629 2.94016 5.52748 2.94043 4.99705C2.9407 4.46661 3.15166 3.95801 3.52692 3.58313C3.90218 3.20824 4.411 2.99778 4.94143 2.99805C5.47186 2.99831 5.98047 3.20928 6.35535 3.58454C6.73024 3.9598 6.9407 4.46861 6.94043 4.99905ZM7.00043 8.47905H3.00043V20.999H7.00043V8.47905ZM13.3204 8.47905H9.34043V20.999H13.2804V14.429C13.2804 10.769 18.0504 10.429 18.0504 14.429V20.999H22.0004V13.069C22.0004 6.89905 14.9404 7.12905 13.2804 10.159L13.3204 8.47905Z" fill="white"/>
</svg>
