<svg width="128" height="128" viewBox="0 0 128 128" fill="none" xmlns="http://www.w3.org/2000/svg">
<path d="M63.3912 12.2488C59.1692 12.2688 55.1392 12.6278 51.5912 13.2558C41.1412 15.1018 39.2452 18.9658 39.2452 26.0928V35.5038H63.9382V38.6408H29.9772C22.8012 38.6408 16.5172 42.9538 14.5512 51.1618C12.2832 60.5668 12.1832 66.4368 14.5512 76.2578C16.3062 83.5688 20.4982 88.7768 27.6752 88.7768H36.1662V77.4948C36.1662 69.3438 43.2172 62.1548 51.5922 62.1548H76.2572C83.1232 62.1548 88.6032 56.5008 88.6032 49.6068V26.0938C88.6032 19.4008 82.9572 14.3738 76.2572 13.2568C72.0132 12.5508 67.6122 12.2298 63.3912 12.2488ZM50.0372 19.8178C52.5872 19.8178 54.6712 21.9348 54.6712 24.5388C54.6712 27.1318 52.5882 29.2288 50.0372 29.2288C47.4772 29.2288 45.4042 27.1318 45.4042 24.5388C45.4032 21.9348 47.4772 19.8178 50.0372 19.8178Z" fill="url(#paint0_linear_1680_517)"/>
<path d="M91.6821 38.6397V49.6057C91.6821 58.1057 84.4741 65.2607 76.2561 65.2607H51.5911C44.8351 65.2607 39.2451 71.0437 39.2451 77.8097V101.325C39.2451 108.016 45.0631 111.953 51.5911 113.872C59.4071 116.169 66.9031 116.585 76.2561 113.872C82.4721 112.071 88.6021 108.449 88.6021 101.325V91.9127H63.9381V88.7747H100.95C108.126 88.7747 110.802 83.7697 113.298 76.2557C115.876 68.5207 115.765 61.0817 113.298 51.1597C111.524 44.0147 108.137 38.6387 100.95 38.6387L91.6821 38.6397ZM77.8091 98.1867C80.3701 98.1867 82.4431 100.284 82.4431 102.879C82.4431 105.481 80.3691 107.598 77.8091 107.598C75.2591 107.598 73.1761 105.481 73.1761 102.879C73.1761 100.284 75.2591 98.1867 77.8091 98.1867Z" fill="url(#paint1_linear_1680_517)"/>
<path opacity="0.444" d="M97.309 119.597C97.309 123.14 82.493 126.013 64.218 126.013C45.942 126.013 31.126 123.14 31.126 119.597C31.126 116.054 45.941 113.18 64.218 113.18C82.493 113.18 97.309 116.052 97.309 119.597Z" fill="url(#paint2_radial_1680_517)"/>
<defs>
<linearGradient id="paint0_linear_1680_517" x1="10.3371" y1="15.1915" x2="67.2909" y2="63.7614" gradientUnits="userSpaceOnUse">
<stop stop-color="#5A9FD4"/>
<stop offset="1" stop-color="#306998"/>
</linearGradient>
<linearGradient id="paint1_linear_1680_517" x1="88.719" y1="93.952" x2="68.2944" y2="65.3099" gradientUnits="userSpaceOnUse">
<stop stop-color="#FFD43B"/>
<stop offset="1" stop-color="#FFE873"/>
</linearGradient>
<radialGradient id="paint2_radial_1680_517" cx="0" cy="0" r="1" gradientUnits="userSpaceOnUse" gradientTransform="translate(64.0842 119.413) rotate(-90) scale(6.41832 28.2139)">
<stop stop-color="#B8B8B8" stop-opacity="0.498"/>
<stop offset="1" stop-color="#7F7F7F" stop-opacity="0"/>
</radialGradient>
</defs>
</svg>
