<svg width="30" height="30" viewBox="0 0 30 30" fill="none" xmlns="http://www.w3.org/2000/svg">
<path d="M10 7.5H13.75V13.75C13.75 16.5075 11.5075 18.75 8.75 18.75V16.25C10.1287 16.25 11.25 15.1287 11.25 13.75H7.5V10C7.5 8.62125 8.62125 7.5 10 7.5ZM16.25 10V13.75H20C20 15.1287 18.8787 16.25 17.5 16.25V18.75C20.2575 18.75 22.5 16.5075 22.5 13.75V7.5H18.75C17.3713 7.5 16.25 8.62125 16.25 10ZM30 3.75V25H21.4338L16.625 28.975C16.1737 29.3775 15.595 29.58 15.01 29.58C14.415 29.58 13.8162 29.37 13.3387 28.945L8.6525 25H0V3.75C0 1.6825 1.6825 0 3.75 0H26.25C28.3175 0 30 1.6825 30 3.75ZM27.5 3.75C27.5 3.06 26.94 2.5 26.25 2.5H3.75C3.06 2.5 2.5 3.06 2.5 3.75V22.5H9.56625L14.975 27.0563L20.535 22.5H27.4988L27.5 3.75Z" fill="black"/>
</svg>
