<svg width="128" height="128" viewBox="0 0 128 128" fill="none" xmlns="http://www.w3.org/2000/svg">
<path d="M64.0001 75.3996C70.2961 75.3996 75.4001 70.2957 75.4001 63.9996C75.4001 57.7036 70.2961 52.5996 64.0001 52.5996C57.7041 52.5996 52.6001 57.7036 52.6001 63.9996C52.6001 70.2957 57.7041 75.3996 64.0001 75.3996Z" fill="#00D8FF"/>
<path d="M107.3 45.1996C105.1 44.3996 102.8 43.5996 100.4 42.8996C101 40.4996 101.5 38.0996 101.9 35.7996C104 22.5996 101.7 13.2996 95.2999 9.69961C93.3999 8.59961 91.2999 8.09961 88.8999 8.09961C81.8999 8.09961 72.9999 13.2996 63.9999 21.9996C54.9999 13.2996 46.0999 8.09961 39.0999 8.09961C36.6999 8.09961 34.5999 8.59961 32.6999 9.69961C26.2999 13.3996 23.9999 22.6996 26.0999 35.7996C26.4999 38.0996 26.9999 40.4996 27.5999 42.8996C25.1999 43.5996 22.8999 44.2996 20.6999 45.1996C8.1999 49.9996 1.3999 56.5996 1.3999 63.9996C1.3999 71.3996 8.2999 77.9996 20.6999 82.7996C22.8999 83.5996 25.1999 84.3996 27.5999 85.0996C26.9999 87.4996 26.4999 89.8996 26.0999 92.1996C23.9999 105.4 26.2999 114.7 32.6999 118.3C34.5999 119.4 36.6999 119.9 39.0999 119.9C46.1999 119.9 55.0999 114.7 63.9999 106C72.9999 114.7 81.8999 119.9 88.8999 119.9C91.2999 119.9 93.3999 119.4 95.2999 118.3C101.7 114.6 104 105.3 101.9 92.1996C101.5 89.8996 101 87.4996 100.4 85.0996C102.8 84.3996 105.1 83.6996 107.3 82.7996C119.8 77.9996 126.6 71.3996 126.6 63.9996C126.6 56.5996 119.8 49.9996 107.3 45.1996ZM92.4999 14.6996C96.5999 17.0996 97.9999 24.4996 96.2999 34.9996C95.9999 37.0996 95.4999 39.2996 94.8999 41.5996C89.6999 40.3996 84.1999 39.5996 78.3999 39.0996C74.9999 34.2996 71.4999 29.9996 67.9999 26.0996C75.3999 18.7996 82.8999 13.7996 88.9999 13.7996C90.2999 13.7996 91.4999 14.0996 92.4999 14.6996ZM81.2999 73.9996C79.4999 77.1996 77.3999 80.3996 75.1999 83.5996C71.4999 83.8996 67.7999 83.9996 63.9999 83.9996C60.0999 83.9996 56.3999 83.8996 52.7999 83.5996C50.5999 80.3996 48.5999 77.1996 46.7999 73.9996C44.8999 70.6996 43.0999 67.2996 41.4999 63.9996C43.0999 60.6996 44.8999 57.2996 46.7999 53.9996C48.5999 50.7996 50.6999 47.5996 52.8999 44.3996C56.5999 44.0996 60.2999 43.9996 64.0999 43.9996C67.9999 43.9996 71.6999 44.0996 75.2999 44.3996C77.4999 47.5996 79.4999 50.7996 81.2999 53.9996C83.1999 57.2996 84.9999 60.6996 86.5999 63.9996C84.8999 67.2996 83.1999 70.5996 81.2999 73.9996ZM89.5999 70.6996C91.0999 74.1996 92.2999 77.5996 93.3999 80.9996C89.9999 81.7996 86.3999 82.3996 82.5999 82.8996C83.7999 80.9996 85.0999 78.9996 86.1999 76.8996C87.3999 74.7996 88.4999 72.6996 89.5999 70.6996ZM63.9999 97.7996C61.5999 95.1996 59.2999 92.3996 57.0999 89.4996C59.3999 89.5996 61.6999 89.6996 63.9999 89.6996C66.2999 89.6996 68.5999 89.5996 70.8999 89.4996C68.6999 92.3996 66.3999 95.1996 63.9999 97.7996ZM45.3999 82.7996C41.5999 82.2996 37.9999 81.6996 34.5999 80.8996C35.6999 77.5996 36.8999 74.0996 38.3999 70.5996C39.4999 72.5996 40.5999 74.6996 41.7999 76.6996C42.9999 78.8996 44.1999 80.7996 45.3999 82.7996ZM38.3999 57.2996C36.8999 53.7996 35.6999 50.3996 34.5999 46.9996C37.9999 46.1996 41.5999 45.5996 45.3999 45.0996C44.1999 46.9996 42.8999 48.9996 41.7999 51.0996C40.5999 53.1996 39.4999 55.2996 38.3999 57.2996ZM63.9999 30.1996C66.3999 32.7996 68.6999 35.5996 70.8999 38.4996C68.5999 38.3996 66.2999 38.2996 63.9999 38.2996C61.6999 38.2996 59.3999 38.3996 57.0999 38.4996C59.2999 35.5996 61.5999 32.7996 63.9999 30.1996ZM86.1999 51.1996L82.5999 45.1996C86.3999 45.6996 89.9999 46.2996 93.3999 47.0996C92.2999 50.3996 91.0999 53.8996 89.5999 57.3996C88.4999 55.2996 87.3999 53.1996 86.1999 51.1996ZM31.6999 34.9996C29.9999 24.4996 31.3999 17.0996 35.4999 14.6996C36.4999 14.0996 37.6999 13.7996 38.9999 13.7996C44.9999 13.7996 52.4999 18.6996 59.9999 26.0996C56.4999 29.8996 52.9999 34.2996 49.5999 39.0996C43.7999 39.5996 38.2999 40.4996 33.0999 41.5996C32.4999 39.2996 32.0999 37.0996 31.6999 34.9996ZM6.9999 63.9996C6.9999 59.2996 12.6999 54.2996 22.6999 50.5996C24.6999 49.7996 26.8999 49.0996 29.0999 48.4996C30.6999 53.4996 32.6999 58.7996 35.0999 64.0996C32.6999 69.3996 30.5999 74.5996 29.0999 79.5996C15.2999 75.5996 6.9999 69.5996 6.9999 63.9996ZM35.4999 113.3C31.3999 110.9 29.9999 103.5 31.6999 92.9996C31.9999 90.8996 32.4999 88.6996 33.0999 86.3996C38.2999 87.5996 43.7999 88.3996 49.5999 88.8996C52.9999 93.6996 56.4999 97.9996 59.9999 101.9C52.5999 109.2 45.0999 114.2 38.9999 114.2C37.6999 114.2 36.4999 113.9 35.4999 113.3ZM96.2999 92.9996C97.9999 103.5 96.5999 110.9 92.4999 113.3C91.4999 113.9 90.2999 114.2 88.9999 114.2C82.9999 114.2 75.4999 109.3 67.9999 101.9C71.4999 98.0996 74.9999 93.6996 78.3999 88.8996C84.1999 88.3996 89.6999 87.4996 94.8999 86.3996C95.4999 88.6996 95.8999 90.8996 96.2999 92.9996ZM105.3 77.3996C103.3 78.1996 101.1 78.8996 98.8999 79.4996C97.2999 74.4996 95.2999 69.1996 92.8999 63.8996C95.2999 58.5996 97.3999 53.3996 98.8999 48.3996C112.7 52.3996 121 58.3996 121 63.9996C121 68.6996 115.2 73.6996 105.3 77.3996Z" fill="#00D8FF"/>
</svg>
